<svg width="1200" height="900" viewBox="0 0 1200 900" fill="none" xmlns="http://www.w3.org/2000/svg">
<rect width="1200" height="900" rx="48" fill="#F8F1E5"/>
<rect x="64" y="64" width="1072" height="772" rx="40" fill="url(#paint0_linear_1_1)"/>
<circle cx="936" cy="240" r="96" fill="#FFF4DF" fill-opacity="0.82"/>
<path d="M154 650C154 603.072 192.072 565 239 565H961C1007.93 565 1046 603.072 1046 650V746H154V650Z" fill="#FFF9F1" fill-opacity="0.88"/>
<path d="M206 746H994V778C994 804.51 972.51 826 946 826H254C227.49 826 206 804.51 206 778V746Z" fill="#E7D5BE"/>
<rect x="278" y="438" width="206" height="224" rx="24" fill="#D8B28A"/>
<rect x="522" y="390" width="402" height="272" rx="28" fill="#C9DEC8"/>
<rect x="566" y="434" width="136" height="136" rx="20" fill="#F8F1E5"/>
<rect x="746" y="434" width="134" height="60" rx="16" fill="#F5E7D5"/>
<rect x="746" y="510" width="104" height="24" rx="12" fill="#F5E7D5"/>
<rect x="746" y="546" width="88" height="24" rx="12" fill="#F5E7D5"/>
<path d="M318 662V540C318 516.804 336.804 498 360 498H402C425.196 498 444 516.804 444 540V662" stroke="#FFF9F1" stroke-width="24" stroke-linecap="round"/>
<path d="M618 570L676 512L736 570" stroke="#D9B78F" stroke-width="26" stroke-linecap="round" stroke-linejoin="round"/>
<path d="M742 570L790 530L844 570" stroke="#D9B78F" stroke-width="26" stroke-linecap="round" stroke-linejoin="round"/>
<circle cx="682" cy="476" r="22" fill="#D9B78F"/>
<defs>
<linearGradient id="paint0_linear_1_1" x1="130" y1="98" x2="1037" y2="781" gradientUnits="userSpaceOnUse">
<stop stop-color="#E6C49E"/>
<stop offset="0.45" stop-color="#F8E9D2"/>
<stop offset="1" stop-color="#D6E6D7"/>
</linearGradient>
</defs>
</svg>
